# xmcd
#
# Track frame offsets:
#	150
#	21018
#	44189
#	66937
#	85467
#	109355
#	126286
#	150149
#	169502
#	187883
#
# Disc length: 2761 seconds
#
# Revision: 5
# Processed by: cddbd v1.5.1PL2 Copyright (c) Steve Scherf et al.
# Submitted via: EasyCDDAExtractor 9.0.0.1
#
DISCID=800ac70a
DTITLE=Профессор Лебединский и Русский размер - Давай-Давай
DYEAR=1996
DGENRE=Dance
TTITLE0=Си-си-соль
TTITLE1=Малосольный огурец
TTITLE2=Синий-синий тикет
TTITLE3=Бегут года
TTITLE4=Колыбельная
TTITLE5=В последний раз
TTITLE6=Джаяйя
TTITLE7=Лимбо-бимбо
TTITLE8=Не было печали
TTITLE9=Колыбельная 2
EXTD=
EXTT0=
EXTT1=
EXTT2=
EXTT3=
EXTT4=
EXTT5=
EXTT6=
EXTT7=
EXTT8=
EXTT9=
PLAYORDER=
